<?xml version="1.0" standalone="no"?><!DOCTYPE svg PUBLIC "-//W3C//DTD SVG 1.1//EN" "http://www.w3.org/Graphics/SVG/1.1/DTD/svg11.dtd"><svg t="1650110444729" class="icon" viewBox="0 0 1024 1024" version="1.1" xmlns="http://www.w3.org/2000/svg" p-id="5996" xmlns:xlink="http://www.w3.org/1999/xlink" width="200" height="200"><defs><style type="text/css">@font-face { font-family: feedback-iconfont; src: url("//at.alicdn.com/t/font_1031158_u69w8yhxdu.woff2?t=1630033759944") format("woff2"), url("//at.alicdn.com/t/font_1031158_u69w8yhxdu.woff?t=1630033759944") format("woff"), url("//at.alicdn.com/t/font_1031158_u69w8yhxdu.ttf?t=1630033759944") format("truetype"); }
</style></defs><path d="M64 149.333333h64c12.949333 0 25.450667 10.965333 27.178667 23.978667l74.026666 555.029333C233.706667 762.304 264.384 789.333333 298.453333 789.333333H874.666667v-42.666666H298.474667c-12.629333 0-25.28-11.136-26.986667-23.978667L197.461333 167.68C192.938667 133.461333 162.346667 106.666667 128 106.666667H64v42.666666z" fill="#d81e06" p-id="5997"></path><path d="M277.333333 234.666667h597.504c10.453333 0 16.853333 7.402667 15.36 17.792l-51.968 363.712c-1.813333 12.757333-14.634667 23.829333-27.669333 23.829333H341.333333a21.333333 21.333333 0 0 0 0 42.666667h469.226667c34.24 0 65.066667-26.666667 69.909333-60.458667l51.968-363.712c5.141333-36.053333-21.162667-66.496-57.6-66.496H277.333333a21.333333 21.333333 0 0 0 0 42.666667z" fill="#d81e06" p-id="5998"></path><path d="M298.666667 896m-42.666667 0a42.666667 42.666667 0 1 0 85.333333 0 42.666667 42.666667 0 1 0-85.333333 0Z" fill="#d81e06" p-id="5999"></path><path d="M810.666667 896m-42.666667 0a42.666667 42.666667 0 1 0 85.333333 0 42.666667 42.666667 0 1 0-85.333333 0Z" fill="#d81e06" p-id="6000"></path></svg>